<?xml version="1.0" encoding="UTF-8"?><svg xmlns="http://www.w3.org/2000/svg" viewBox="0 0 553.46 99"><defs><style>.d{fill:#441a57;}.e{fill:#2b54a5;}.f{fill:none;stroke:#43525a;stroke-width:.5px;}.g{fill:#fff;font-family:DINPro-Black, DINPro Black;font-size:8px;}</style></defs><g id="a"/><g id="b"><g id="c"><g><line class="f" x1="113.39" y1="77.68" y2="77.68"/><line class="f" x1="113.14" y1="77.93" x2="113.14" y2="75.1"/><line class="f" x1=".25" y1="77.93" x2=".25" y2="75.1"/><line class="f" x1="206.93" y1="77.68" x2="121.89" y2="77.68"/><line class="f" x1="206.68" y1="77.93" x2="206.68" y2="75.1"/><line class="f" x1="122.14" y1="77.93" x2="122.14" y2="75.1"/><line class="f" x1="272.13" y1="77.68" x2="215.43" y2="77.68"/><line class="f" x1="271.88" y1="77.93" x2="271.88" y2="75.1"/><line class="f" x1="215.68" y1="77.93" x2="215.68" y2="75.1"/><polygon class="d" points="74.78 99 74.78 84.83 58.9 84.83 56.69 82.62 54.48 84.83 38.61 84.83 38.61 99 74.78 99"/><text class="g" transform="translate(43.7 95.48)"><tspan x="0" y="0">4</tspan></text><text class="g" transform="translate(48.01 95.48)"><tspan x="0" y="0">0 </tspan></text><text class="g" transform="translate(53.81 95.48)"><tspan x="0" y="0">m</tspan></text><text class="g" transform="translate(60.63 95.48)"><tspan x="0" y="0">m</tspan></text><polygon class="d" points="182.5 99 182.5 84.83 166.62 84.83 164.41 82.62 162.2 84.83 146.32 84.83 146.32 99 182.5 99"/><text class="g" transform="translate(151.42 95.48)"><tspan x="0" y="0">3</tspan></text><text class="g" transform="translate(155.72 95.48)"><tspan x="0" y="0">0 </tspan></text><text class="g" transform="translate(161.52 95.48)"><tspan x="0" y="0">m</tspan></text><text class="g" transform="translate(168.34 95.48)"><tspan x="0" y="0">m</tspan></text><polygon class="d" points="262.28 99 262.28 84.83 246.41 84.83 244.2 82.62 241.98 84.83 226.11 84.83 226.11 99 262.28 99"/><text class="g" transform="translate(231.22 95.48)"><tspan x="0" y="0">2</tspan></text><text class="g" transform="translate(235.48 95.48)"><tspan x="0" y="0">0 </tspan></text><text class="g" transform="translate(241.28 95.48)"><tspan x="0" y="0">m</tspan></text><text class="g" transform="translate(248.1 95.48)"><tspan x="0" y="0">m</tspan></text><line class="f" x1="295.65" y1="70.87" x2="295.65" y2="0"/><line class="f" x1="295.4" y1="70.62" x2="298.23" y2="70.62"/><line class="f" x1="295.4" y1=".25" x2="298.23" y2=".25"/><line class="f" x1="406.8" y1="56.69" x2="406.8" y2="0"/><line class="f" x1="406.55" y1="56.44" x2="409.39" y2="56.44"/><line class="f" x1="406.55" y1=".25" x2="409.39" y2=".25"/><line class="f" x1="504.66" y1="28.35" x2="504.66" y2="0"/><line class="f" x1="504.41" y1="28.1" x2="507.25" y2="28.1"/><line class="f" x1="504.41" y1=".25" x2="507.25" y2=".25"/><polygon class="d" points="363.62 99 363.62 84.83 347.75 84.83 345.54 82.61 343.33 84.83 327.45 84.83 327.45 99 363.62 99"/><text class="g" transform="translate(328.39 94.93)"><tspan x="0" y="0">h</tspan></text><text class="g" transform="translate(333.03 94.93)"><tspan x="0" y="0">=</tspan></text><text class="g" transform="translate(337.9 94.93)"><tspan x="0" y="0">2</tspan></text><text class="g" transform="translate(342.12 94.93)"><tspan x="0" y="0">5 </tspan></text><text class="g" transform="translate(347.92 94.93)"><tspan x="0" y="0">m</tspan></text><text class="g" transform="translate(354.75 94.93)"><tspan x="0" y="0">m</tspan></text><polygon class="d" points="465.33 99 465.33 84.83 449.46 84.83 447.25 82.61 445.04 84.83 429.16 84.83 429.16 99 465.33 99"/><text class="g" transform="translate(430.09 94.93)"><tspan x="0" y="0">h</tspan></text><text class="g" transform="translate(434.7 94.93)"><tspan x="0" y="0">=</tspan></text><text class="g" transform="translate(439.57 94.93)"><tspan x="0" y="0">2</tspan></text><text class="g" transform="translate(443.85 94.93)"><tspan x="0" y="0">0 </tspan></text><text class="g" transform="translate(449.65 94.93)"><tspan x="0" y="0">m</tspan></text><text class="g" transform="translate(456.46 94.93)"><tspan x="0" y="0">m</tspan></text><polygon class="d" points="553.46 99 553.46 84.83 532.47 84.83 530.21 82.61 527.96 84.83 511.79 84.83 511.79 99 553.46 99"/><text class="g" transform="translate(515.67 94.93)"><tspan x="0" y="0">h</tspan></text><text class="g" transform="translate(520.31 94.93)"><tspan x="0" y="0">=</tspan></text><text class="g" transform="translate(525.05 94.93)"><tspan x="0" y="0">1</tspan></text><text class="g" transform="translate(529.04 94.93)"><tspan x="0" y="0">0 </tspan></text><text class="g" transform="translate(534.84 94.93)"><tspan x="0" y="0">m</tspan></text><text class="g" transform="translate(541.66 94.93)"><tspan x="0" y="0">m</tspan></text><path class="e" d="M31.4,38.05c0,.96-.78,1.74-1.74,1.74h-1.74c-.96,0-1.74-.78-1.74-1.74h0v-6.98c0-.96,.78-1.74,1.74-1.74h1.74c.96,0,1.74,.78,1.74,1.74v6.98Zm6.11,1.74h-.87c-.96,0-1.74-.78-1.74-1.74v-11.34c0-.48-.39-.87-.87-.87h-1.74c-.28,0-.54,.13-.71,.36-.61-.24-1.26-.36-1.91-.36h-1.74c-2.89,0-5.23,2.34-5.23,5.23v6.98c0,2.89,2.34,5.23,5.23,5.23h1.74c1.29,0,2.53-.47,3.49-1.33,.96,.86,2.2,1.33,3.49,1.33h.87c.48,0,.87-.39,.87-.87v-1.74c0-.48-.39-.87-.87-.87"/><path class="e" d="M17.44,38.05c0,.96-.78,1.74-1.75,1.74h-3.49v-8.72c0-.96,.78-1.74,1.74-1.74h1.74c.96,0,1.75,.78,1.75,1.74v6.98Zm-1.75-12.21h-1.74c-2.89,0-5.23,2.34-5.23,5.23v8.72h-2.62c-.48,0-.87,.39-.87,.87v1.74c0,.48,.39,.87,.87,.87h2.62v3.49c0,.96-.78,1.74-1.75,1.74h-.87c-.48,0-.87,.39-.87,.87v1.74c0,.48,.39,.87,.87,.87h.87c2.89,0,5.23-2.34,5.23-5.23v-3.49h3.49c2.89,0,5.23-2.34,5.23-5.23v-6.98c0-2.89-2.34-5.23-5.23-5.23"/><path class="e" d="M2.62,39.79H.87C.39,39.79,0,40.18,0,40.67v1.74c0,.48,.39,.87,.87,.87h1.74c.48,0,.87-.39,.87-.87v-1.74c0-.48-.39-.87-.87-.87"/><path class="e" d="M46.23,25.84h-2.62v-6.1c0-.48-.39-.87-.87-.87h-1.74c-.48,0-.87,.39-.87,.87v6.1h-2.62c-.48,0-.87,.39-.87,.87v1.74c0,.48,.39,.87,.87,.87h2.62v13.08c0,.48,.39,.87,.87,.87h1.74c.48,0,.87-.39,.87-.87v-13.08h2.62c.48,0,.87-.39,.87-.87v-1.74c0-.48-.39-.87-.87-.87"/><path class="e" d="M112.51,25.84h-1.74c-.48,0-.87,.39-.87,.87v13.08h-3.49c-.96,0-1.74-.78-1.74-1.74h0v-11.34c0-.48-.39-.87-.87-.87h-1.74c-.48,0-.87,.39-.87,.87v11.34c0,2.89,2.34,5.23,5.23,5.23h3.49v1.75c0,.96-.78,1.74-1.74,1.74h-6.11c-.48,0-.87,.39-.87,.87v1.75c0,.48,.39,.87,.87,.87h6.11c2.89,0,5.23-2.34,5.23-5.23V26.71c0-.48-.39-.87-.87-.87"/><path class="e" d="M82.86,25.84h-1.75c-.48,0-.87,.39-.87,.87v13.08h-3.49c-.96,0-1.74-.78-1.74-1.74h0v-11.34c0-.48-.39-.87-.87-.87h-1.74c-.48,0-.87,.39-.87,.87v13.08h-3.49c-.96,0-1.74-.78-1.74-1.74h0v-11.34c0-.48-.39-.87-.87-.87h-1.75c-.48,0-.87,.39-.87,.87v11.34c0,2.89,2.34,5.23,5.23,5.23h6.11c.28,0,.54-.13,.71-.36,.61,.24,1.26,.36,1.91,.36h6.11c.48,0,.87-.39,.87-.87v-15.7c0-.48-.39-.87-.87-.87"/><path class="e" d="M94.2,38.05c0,.96-.78,1.74-1.74,1.74h-1.74c-.96,0-1.74-.78-1.74-1.74h0v-6.98c0-.96,.78-1.74,1.74-1.74h1.74c.96,0,1.74,.78,1.74,1.74v6.98Zm6.98,2.62c0-.48-.39-.87-.87-.87h-.87c-.96,0-1.74-.78-1.74-1.74v-11.34c0-.48-.39-.87-.87-.87h-1.74c-.28,0-.54,.13-.71,.36-.61-.24-1.26-.36-1.91-.36h-1.74c-2.89,0-5.23,2.34-5.23,5.23v6.98c0,2.89,2.34,5.23,5.23,5.23h1.74c1.29,0,2.53-.47,3.49-1.33,.96,.86,2.2,1.33,3.49,1.33h.87c.48,0,.87-.39,.87-.87v-1.74Z"/><path class="e" d="M55.82,25.84h-3.49v-6.1c0-.48-.39-.87-.87-.87h-1.74c-.48,0-.87,.39-.87,.87v22.68c0,.48,.39,.87,.87,.87h1.74c.48,0,.87-.39,.87-.87v-13.08h3.49c.96,0,1.74,.78,1.74,1.74v11.34c0,.48,.39,.87,.87,.87h1.74c.48,0,.87-.39,.87-.87v-11.34c0-2.89-2.34-5.23-5.23-5.23"/><path class="e" d="M145.44,37.4c0,.72-.59,1.31-1.31,1.31h-1.31c-.72,0-1.31-.59-1.31-1.31h0v-5.23c0-.72,.59-1.31,1.31-1.31h1.31c.72,0,1.31,.59,1.31,1.31v5.23Zm4.58,1.31h-.65c-.72,0-1.31-.59-1.31-1.31v-8.5c0-.36-.29-.65-.65-.65h-1.31c-.21,0-.41,.1-.53,.27-.46-.18-.94-.27-1.43-.27h-1.31c-2.17,0-3.92,1.76-3.92,3.93v5.23c0,2.17,1.76,3.92,3.92,3.92h1.31c.97,0,1.9-.36,2.62-1,.72,.64,1.65,1,2.62,1h.65c.36,0,.65-.29,.65-.65v-1.31c0-.36-.29-.65-.65-.65"/><path class="e" d="M134.97,37.4c0,.72-.59,1.31-1.31,1.31h-2.62v-6.54c0-.72,.58-1.31,1.31-1.31h1.31c.72,0,1.31,.59,1.31,1.31v5.23Zm-1.31-9.16h-1.31c-2.17,0-3.92,1.76-3.92,3.93v6.54h-1.96c-.36,0-.65,.29-.65,.65v1.31c0,.36,.29,.65,.65,.65h1.96v2.62c0,.72-.59,1.31-1.31,1.31h-.65c-.36,0-.65,.29-.65,.65v1.31c0,.36,.29,.65,.65,.65h.65c2.17,0,3.93-1.76,3.93-3.92v-2.62h2.62c2.17,0,3.92-1.76,3.92-3.92v-5.23c0-2.17-1.76-3.93-3.92-3.93"/><path class="e" d="M123.85,38.7h-1.31c-.36,0-.65,.29-.65,.65v1.31c0,.36,.29,.65,.65,.65h1.31c.36,0,.65-.29,.65-.65v-1.31c0-.36-.29-.65-.65-.65"/><path class="e" d="M156.56,28.24h-1.96v-4.58c0-.36-.29-.65-.65-.65h-1.31c-.36,0-.65,.29-.65,.65v4.58h-1.96c-.36,0-.65,.29-.65,.65v1.31c0,.36,.29,.65,.65,.65h1.96v9.81c0,.36,.29,.65,.65,.65h1.31c.36,0,.65-.29,.65-.65v-9.81h1.96c.36,0,.65-.29,.65-.65v-1.31c0-.36-.29-.65-.65-.65"/><path class="e" d="M206.28,28.24h-1.31c-.36,0-.65,.29-.65,.65v9.81h-2.62c-.72,0-1.31-.59-1.31-1.31h0v-8.5c0-.36-.29-.65-.65-.65h-1.31c-.36,0-.65,.29-.65,.65v8.5c0,2.17,1.76,3.92,3.92,3.92h2.62v1.31c0,.72-.58,1.31-1.31,1.31h-4.58c-.36,0-.65,.29-.65,.65v1.31c0,.36,.29,.65,.65,.65h4.58c2.17,0,3.92-1.76,3.92-3.93v-13.74c0-.36-.29-.65-.65-.65"/><path class="e" d="M184.03,28.24h-1.31c-.36,0-.65,.29-.65,.65v9.81h-2.62c-.72,0-1.31-.59-1.31-1.31h0v-8.5c0-.36-.29-.65-.65-.65h-1.31c-.36,0-.65,.29-.65,.65v9.81h-2.62c-.72,0-1.31-.59-1.31-1.31h0v-8.5c0-.36-.29-.65-.65-.65h-1.31c-.36,0-.65,.29-.65,.65v8.5c0,2.17,1.76,3.92,3.92,3.92h4.58c.21,0,.41-.1,.53-.27,.46,.18,.94,.27,1.43,.27h4.58c.36,0,.65-.29,.65-.65v-11.78c0-.36-.29-.65-.65-.65"/><path class="e" d="M192.54,37.4c0,.72-.59,1.31-1.31,1.31h-1.31c-.72,0-1.31-.59-1.31-1.31h0v-5.23c0-.72,.58-1.31,1.31-1.31h1.31c.72,0,1.31,.59,1.31,1.31v5.23Zm5.23,1.96c0-.36-.29-.65-.65-.65h-.65c-.72,0-1.31-.59-1.31-1.31v-8.5c0-.36-.29-.65-.65-.65h-1.31c-.21,0-.41,.1-.53,.27-.46-.18-.94-.27-1.43-.27h-1.31c-2.17,0-3.92,1.76-3.92,3.93v5.23c0,2.17,1.76,3.92,3.92,3.92h1.31c.97,0,1.9-.36,2.62-1,.72,.64,1.65,1,2.62,1h.65c.36,0,.65-.29,.65-.65v-1.31Z"/><path class="e" d="M163.76,28.24h-2.62v-4.58c0-.36-.29-.65-.65-.65h-1.31c-.36,0-.65,.29-.65,.65v17.01c0,.36,.29,.65,.65,.65h1.31c.36,0,.65-.29,.65-.65v-9.81h2.62c.72,0,1.31,.59,1.31,1.31v8.5c0,.36,.29,.65,.65,.65h1.31c.36,0,.65-.29,.65-.65v-8.5c0-2.17-1.76-3.93-3.92-3.93"/><path class="e" d="M231.13,36.74c0,.48-.39,.87-.87,.87h-.87c-.48,0-.87-.39-.87-.87v-3.49c0-.48,.39-.87,.87-.87h.87c.48,0,.87,.39,.87,.87v3.49Zm3.05,.87h-.44c-.48,0-.87-.39-.87-.87v-5.67c0-.24-.2-.44-.44-.44h-.87c-.14,0-.27,.07-.35,.18-.3-.12-.63-.18-.96-.18h-.87c-1.45,0-2.62,1.17-2.62,2.62v3.49c0,1.45,1.17,2.62,2.62,2.62h.87c.64,0,1.27-.24,1.75-.67,.48,.43,1.1,.67,1.74,.67h.44c.24,0,.44-.19,.44-.44v-.87c0-.24-.2-.44-.44-.44"/><path class="e" d="M224.16,36.74c0,.48-.39,.87-.87,.87h-1.74v-4.36c0-.48,.39-.87,.87-.87h.87c.48,0,.87,.39,.87,.87v3.49Zm-.87-6.11h-.87c-1.45,0-2.62,1.17-2.62,2.62v4.36h-1.31c-.24,0-.44,.19-.44,.44v.87c0,.24,.2,.44,.44,.44h1.31v1.74c0,.48-.39,.87-.87,.87h-.44c-.24,0-.44,.19-.44,.44v.87c0,.24,.2,.44,.44,.44h.44c1.45,0,2.62-1.17,2.62-2.62v-1.74h1.74c1.45,0,2.62-1.17,2.62-2.62v-3.49c0-1.44-1.17-2.62-2.62-2.62"/><path class="e" d="M216.74,37.61h-.87c-.24,0-.44,.19-.44,.44v.87c0,.24,.2,.44,.44,.44h.87c.24,0,.44-.19,.44-.44v-.87c0-.24-.2-.44-.44-.44"/><path class="e" d="M238.55,30.64h-1.31v-3.05c0-.24-.2-.44-.44-.44h-.87c-.24,0-.44,.2-.44,.44v3.05h-1.31c-.24,0-.44,.2-.44,.44v.87c0,.24,.2,.44,.44,.44h1.31v6.54c0,.24,.2,.44,.44,.44h.87c.24,0,.44-.19,.44-.44v-6.54h1.31c.24,0,.44-.2,.44-.44v-.87c0-.24-.2-.44-.44-.44"/><path class="e" d="M271.69,30.64h-.87c-.24,0-.44,.2-.44,.44v6.54h-1.74c-.48,0-.87-.39-.87-.87v-5.67c0-.24-.2-.44-.44-.44h-.87c-.24,0-.44,.2-.44,.44v5.67c0,1.45,1.17,2.62,2.62,2.62h1.74v.87c0,.48-.39,.87-.87,.87h-3.05c-.24,0-.44,.2-.44,.44v.87c0,.24,.2,.44,.44,.44h3.05c1.44,0,2.62-1.17,2.62-2.62v-9.16c0-.24-.2-.44-.44-.44"/><path class="e" d="M256.86,30.64h-.87c-.24,0-.44,.2-.44,.44v6.54h-1.74c-.48,0-.87-.39-.87-.87v-5.67c0-.24-.19-.44-.44-.44h-.87c-.24,0-.44,.2-.44,.44v6.54h-1.74c-.48,0-.87-.39-.87-.87v-5.67c0-.24-.2-.44-.44-.44h-.87c-.24,0-.44,.2-.44,.44v5.67c0,1.45,1.17,2.62,2.62,2.62h3.05c.14,0,.27-.07,.35-.18,.3,.12,.63,.18,.96,.18h3.05c.24,0,.44-.19,.44-.44v-7.85c0-.24-.2-.44-.44-.44"/><path class="e" d="M262.53,36.74c0,.48-.39,.87-.87,.87h-.87c-.48,0-.87-.39-.87-.87v-3.49c0-.48,.39-.87,.87-.87h.87c.48,0,.87,.39,.87,.87v3.49Zm3.49,1.31c0-.24-.2-.44-.44-.44h-.44c-.48,0-.87-.39-.87-.87v-5.67c0-.24-.2-.44-.44-.44h-.87c-.14,0-.27,.07-.35,.18-.3-.12-.63-.18-.95-.18h-.87c-1.45,0-2.62,1.17-2.62,2.62v3.49c0,1.45,1.17,2.62,2.62,2.62h.87c.64,0,1.26-.24,1.74-.67,.48,.43,1.1,.67,1.74,.67h.44c.24,0,.44-.19,.44-.44v-.87Z"/><path class="e" d="M243.34,30.64h-1.74v-3.05c0-.24-.2-.44-.44-.44h-.87c-.24,0-.44,.2-.44,.44v11.34c0,.24,.2,.44,.44,.44h.87c.24,0,.44-.19,.44-.44v-6.54h1.74c.48,0,.87,.39,.87,.87v5.67c0,.24,.2,.44,.44,.44h.87c.24,0,.44-.19,.44-.44v-5.67c0-1.44-1.17-2.62-2.62-2.62"/><path class="e" d="M364.3,33.35c0,6.91-5.6,12.51-12.51,12.51h-8.34v8.34c0,6.91-5.6,12.51-12.51,12.51h-2.08c-1.15,0-2.08-.93-2.08-2.08v-4.17c0-1.15,.93-2.08,2.08-2.08h2.08c2.3,0,4.17-1.87,4.17-4.17v-8.34h-6.25c-1.15,0-2.08-.93-2.08-2.08v-4.17c0-1.15,.93-2.08,2.08-2.08h6.25V16.67c0-6.91,5.6-12.51,12.51-12.51h4.17c6.91,0,12.51,5.6,12.51,12.51v16.67Zm-41.69,10.42c0,1.15-.93,2.08-2.08,2.08h-4.17c-1.15,0-2.08-.93-2.08-2.08v-4.17c0-1.15,.93-2.08,2.08-2.08h4.17c1.15,0,2.08,.93,2.08,2.08v4.17ZM372.63,0h-54.19c-4.6,0-8.34,3.73-8.34,8.34V62.53c0,4.61,3.73,8.34,8.34,8.34h54.19c4.6,0,8.34-3.73,8.34-8.34V8.34c0-4.61-3.73-8.34-8.34-8.34"/><path class="e" d="M351.79,12.51h-4.17c-2.3,0-4.17,1.87-4.17,4.17v20.84h8.34c2.3,0,4.17-1.87,4.17-4.17V16.67c0-2.3-1.87-4.17-4.17-4.17"/><path class="e" d="M462.25,26.68c0,5.53-4.48,10.01-10,10.01h-6.67v6.67c0,5.52-4.48,10-10.01,10h-1.67c-.92,0-1.67-.75-1.67-1.67v-3.33c0-.92,.75-1.67,1.67-1.67h1.67c1.84,0,3.33-1.49,3.33-3.33v-6.67h-5c-.92,0-1.67-.75-1.67-1.67v-3.33c0-.92,.75-1.67,1.67-1.67h5V13.34c0-5.53,4.48-10.01,10.01-10.01h3.34c5.52,0,10,4.48,10,10.01v13.34Zm-33.35,8.34c0,.92-.75,1.67-1.67,1.67h-3.33c-.92,0-1.67-.75-1.67-1.67v-3.33c0-.92,.75-1.67,1.67-1.67h3.33c.92,0,1.67,.75,1.67,1.67v3.33ZM468.92,0h-43.35c-3.68,0-6.67,2.99-6.67,6.67V50.02c0,3.68,2.99,6.67,6.67,6.67h43.35c3.68,0,6.67-2.99,6.67-6.67V6.67c0-3.68-2.99-6.67-6.67-6.67"/><path class="e" d="M452.25,10h-3.34c-1.84,0-3.33,1.49-3.33,3.34V30.01h6.67c1.84,0,3.33-1.49,3.33-3.34V13.34c0-1.84-1.49-3.34-3.33-3.34"/><path class="e" d="M540.13,13.34c0,2.76-2.24,5-5,5h-3.34v3.33c0,2.76-2.24,5-5,5h-.83c-.46,0-.83-.37-.83-.83v-1.67c0-.46,.37-.83,.83-.83h.83c.92,0,1.67-.75,1.67-1.67v-3.33h-2.5c-.46,0-.83-.37-.83-.83v-1.67c0-.46,.37-.83,.83-.83h2.5V6.67c0-2.76,2.24-5,5-5h1.67c2.76,0,5,2.24,5,5v6.67Zm-16.67,4.17c0,.46-.37,.83-.83,.83h-1.67c-.46,0-.83-.37-.83-.83v-1.67c0-.46,.37-.83,.83-.83h1.67c.46,0,.83,.37,.83,.83v1.67ZM543.46,0h-21.68c-1.84,0-3.34,1.49-3.34,3.33V25.01c0,1.84,1.49,3.33,3.34,3.33h21.68c1.84,0,3.34-1.49,3.34-3.33V3.33c0-1.84-1.49-3.33-3.34-3.33"/><path class="e" d="M535.12,5h-1.67c-.92,0-1.67,.75-1.67,1.67V15.01h3.34c.92,0,1.67-.75,1.67-1.67V6.67c0-.92-.75-1.67-1.67-1.67"/></g></g></g></svg>